<svg height='100px' width='100px'  fill="#A2A2A2" xmlns="http://www.w3.org/2000/svg" xmlns:xlink="http://www.w3.org/1999/xlink" version="1.1" x="0px" y="0px" viewBox="0 0 100 100" style="enable-background:new 0 0 100 100;" xml:space="preserve"><g><rect x="30.7" y="10.9" width="38.9" height="0.9"></rect><rect x="35.8" y="19.6" width="4.6" height="3.6"></rect><rect x="35.8" y="40.6" width="4.6" height="3.6"></rect><rect x="58.1" y="36.1" width="4.6" height="3.6"></rect><rect x="47" y="36.1" width="4.6" height="3.6"></rect><rect x="35.8" y="24.1" width="4.6" height="3.6"></rect><rect x="47" y="40.6" width="4.6" height="3.6"></rect><rect x="35" y="50.8" width="6" height="0.3"></rect><rect x="47" y="19.6" width="4.6" height="3.6"></rect><rect x="58.1" y="19.6" width="4.6" height="3.6"></rect><rect x="58.1" y="40.6" width="4.6" height="3.6"></rect><rect x="35" y="69.1" width="6" height="0.3"></rect><rect x="58.1" y="24.1" width="4.6" height="3.6"></rect><rect x="35.8" y="53.3" width="4.6" height="6.7"></rect><rect x="35.8" y="61" width="4.6" height="6.7"></rect><rect x="35.8" y="36.1" width="4.6" height="3.6"></rect><path d="M50.4,76H52v-0.8c-0.3-0.2-0.9-0.7-1.6-0.9V76z"></path><rect x="47" y="24.1" width="4.6" height="3.6"></rect><rect x="50.4" y="79.1" width="1.6" height="0.8"></rect><rect x="47.9" y="61" width="4.6" height="6.7"></rect><rect x="50.4" y="77" width="1.6" height="1.1"></rect><rect x="47.2" y="69.1" width="6" height="0.3"></rect><rect x="47.2" y="50.8" width="6" height="0.3"></rect><rect x="47.9" y="53.3" width="4.6" height="6.7"></rect><path d="M47.8,76h1.6v-1.7c-0.7,0.2-1.4,0.6-1.6,0.9V76z"></path><rect x="47.8" y="77" width="1.6" height="1.1"></rect><rect x="47.8" y="79.1" width="1.6" height="0.8"></rect><path d="M38.4,76H40v-0.8c-0.3-0.2-0.9-0.7-1.6-0.9V76z"></path><rect x="38.4" y="79.1" width="1.6" height="0.8"></rect><rect x="38.4" y="77" width="1.6" height="1.1"></rect><path d="M35.8,76h1.6v-1.7c-0.7,0.2-1.4,0.6-1.6,0.9V76z"></path><rect x="35.8" y="77" width="1.6" height="1.1"></rect><rect x="35.8" y="79.1" width="1.6" height="0.8"></rect></g><path d="M69.9,89.6l0-4.2l-1.5-11.8V49.3h0.5l-0.5-0.1V14.6h0.8v-2.4H31.1v2.4h0.8v66.7h-2.2v8.6h18.2V86h6.7v3.6H69.9z M69.6,87.5  H55v-2.1h14.7V87.5z M56.4,35.3v-1.7h7.9v1.7h-0.6v9.1h0.6v1.7h-7.9v-1.7h0.7v-9.1H56.4z M56.4,18.8v-1.7h7.9v1.7h-0.6v9.1h0.6v1.7  h-7.9v-1.7h0.7v-9.1H56.4z M57.1,15.2v-0.6h1.2v0.6c0,0.3-0.3,0.6-0.6,0.6S57.1,15.5,57.1,15.2z M62.1,46.8l6.1,2.6H55.6L62.1,46.8z   M64.7,15.2v-0.6h1.2v0.6c0,0.3-0.3,0.6-0.6,0.6S64.7,15.5,64.7,15.2z M67.6,72.1v2.2H56.4v-2.2H67.6z M56.8,71.6V54.8h0.4v16.8  H56.8z M57.6,54v-4.2h8.5V54H57.6z M64.8,55.9v10.8H63V55.9H64.8z M62.3,54.5v17.1h-0.4V54.5H62.3z M61.1,55.9v10.8h-1.9V55.9H61.1z   M67.2,71.6V54.8h0.4v16.8H67.2z M68.3,76.6v2.1H55v-2.1H68.3z M32,13.2h36.3v0.5H32V13.2z M45.2,18.8v-1.7h7.9v1.7h-0.6v9.1h0.6  v1.7h-7.9v-1.7H46v-9.1H45.2z M49.4,15.2v-0.6h1.2v0.6c0,0.3-0.3,0.6-0.6,0.6S49.4,15.5,49.4,15.2z M54.2,49.8v2.3h-8v-2.3H54.2z   M42,27.9v1.7h-7.9v-1.7h0.7v-9.1h-0.7v-1.7H42v1.7h-0.6v9.1H42z M42,44.5v1.7h-7.9v-1.7h0.7v-9.1h-0.7v-1.7H42v1.7h-0.6v9.1H42z   M35.2,15.2c0,0.3-0.3,0.6-0.6,0.6s-0.6-0.3-0.6-0.6v-0.6h1.2V15.2z M41,80.9h-6.2v-6.1l0.1-0.1c0.1-0.1,1.2-1.2,2.8-1.4v0  c0.1,0,0.1,0,0.2,0c0.1,0,0.1,0,0.2,0v0c1.6,0.2,2.7,1.3,2.8,1.4l0.1,0.1V80.9z M42,70.3h-8v-2.3h0.8V52.3h6.6v15.7H42V70.3z   M42,52.1h-8v-2.3h8V52.1z M42.9,15.2c0,0.3-0.3,0.6-0.6,0.6s-0.6-0.3-0.6-0.6v-0.6h1.2V15.2z M45.2,44.5H46v-9.1h-0.7v-1.7h7.9v1.7  h-0.6v9.1h0.6v1.7h-7.9V44.5z M46.2,68.1h0.8V52.3h6.6v15.7h0.6v2.3h-8V68.1z M53,80.9h-6.2v-6.1l0.1-0.1c0.1-0.1,1.2-1.2,2.8-1.4v0  c0.1,0,0.1,0,0.2,0c0.1,0,0.1,0,0.2,0v0c1.6,0.2,2.7,1.3,2.8,1.4l0.1,0.1V80.9z M54.2,83.3v-2.1h14.7v2.1H54.2z"></path></svg>