<svg height='100px' width='100px'  fill="#A2A2A2" xmlns="http://www.w3.org/2000/svg" viewBox="0 0 64 64" x="0px" y="0px"><g data-name="line expand"><path d="M53.278,6.915a3.117,3.117,0,0,0-4.509.1L39.325,17.307l-3.658,2.744H34.614A4.014,4.014,0,0,0,36,17.02l-.09-2.854A5.971,5.971,0,0,0,38.773,12.6l.934-.933a1,1,0,0,0-.105-1.506L36.967,8.175a6.018,6.018,0,0,0-6.432-.681L29.4,8.063c-.037.019-.134.081-.169.1a5.007,5.007,0,0,0-1.7,6.4l.42.84L28,17.051a3.975,3.975,0,0,0,1.382,3h-.031l-4.682-3.746-2.3-2.295,6.039-6.794a3.133,3.133,0,0,0-.133-4.3A3.071,3.071,0,0,0,26,2a3.107,3.107,0,0,0-2.24,1.014L16.2,11.258a3.99,3.99,0,0,0,.12,5.531l3.969,3.969c.012.011.027.015.039.026s.016.025.028.035l5.64,4.7V38.774l-5.857,9.762a1,1,0,0,0-.057.921l3.5,7.866A4,4,0,0,0,21,61.051v1a1,1,0,0,0,1,1h8a1,1,0,0,0,1-1,1,1,0,0,0,1,1h8a1,1,0,0,0,1-1v-4a.1.1,0,0,0,0-.018.984.984,0,0,0-.065-.324.7.7,0,0,0-.032-.08c-.01-.021-.014-.044-.025-.064l-4.713-8.484,3.845-6.153a4.982,4.982,0,0,0,.663-3.631L40,35.952V25.465l3.707-3.707c.005,0,.007-.013.012-.018s.013-.007.018-.013l9.644-10.508A3.115,3.115,0,0,0,53.278,6.915ZM33.914,14.32,34,17.051a2,2,0,1,1-4-.031l-.06-1.9L31.1,13.38A6.067,6.067,0,0,0,33.914,14.32Zm-3.564-4.5,1.079-.539a4.021,4.021,0,0,1,4.311.472l1.739,1.309-.12.12a4.189,4.189,0,0,1-5.384.371l-.531-.4a1.01,1.01,0,0,0-.769-.185,1,1,0,0,0-.663.431l-.965,1.447A3.047,3.047,0,0,1,30.35,9.822ZM17.678,12.609l7.555-8.242A1.122,1.122,0,0,1,26.042,4a1.166,1.166,0,0,1,.831.338,1.131,1.131,0,0,1,.045,1.549l-6.666,7.5a1,1,0,0,0,.041,1.372l2.293,2.293L21,18.637l-3.262-3.262A2,2,0,0,1,17.678,12.609ZM29,61.051H23a2,2,0,0,1,2-2h4Zm2,0v-3c0-.015-.008-.028-.009-.043a.99.99,0,0,0-.064-.32c0-.011-.006-.023-.01-.034l0-.009-3.721-8.373,2.519-2.519-.661,1.981a1.006,1.006,0,0,0,.075.8l4.345,7.82A4,4,0,0,0,31,61.051Zm8,0H33a2,2,0,0,1,2-2h4Zm-.69-19.183-4.158,6.653a1,1,0,0,0-.026,1.016L38.3,57.051H35.588l-4.5-8.1,1.861-5.583a1,1,0,0,0-1.656-1.023l-6,6a1,1,0,0,0-.207,1.113l3.375,7.594H25.65L22.125,49.12l5.732-9.555A.991.991,0,0,0,28,39.051v-2H38.18l.528,2.638A3,3,0,0,1,38.31,41.868Zm-.017-17.524a1,1,0,0,0-.293.707v10H28v-10a1,1,0,0,0-.36-.768l-5.159-4.3,1.593-1.592,4.3,3.441a1,1,0,0,0,.625.219h7a1.006,1.006,0,0,0,.6-.2l3.306-2.48,1.68,1.68ZM51.9,9.87l-8.935,9.735-1.584-1.584,8.861-9.653a1.1,1.1,0,0,1,.8-.366,1.074,1.074,0,0,1,.818.327A1.117,1.117,0,0,1,51.9,9.87Z"></path><path d="M2.628,50.979l3.888,1.556,1.555,3.887a1,1,0,0,0,1.858,0l1.555-3.887,3.888-1.556a1,1,0,0,0,0-1.857l-3.888-1.555L9.929,43.679a1,1,0,0,0-1.858,0L6.516,47.567,2.628,49.122a1,1,0,0,0,0,1.857Zm5.029-1.714a1,1,0,0,0,.557-.557L9,46.743l.786,1.965a1,1,0,0,0,.557.557l1.965.786-1.965.786a1,1,0,0,0-.557.557L9,53.358l-.786-1.964a1,1,0,0,0-.557-.557l-1.965-.786Z"></path><path d="M61.372,24.122l-3.888-1.555-1.555-3.888a1,1,0,0,0-1.858,0l-1.555,3.888-3.888,1.555a1,1,0,0,0,0,1.857l3.888,1.556,1.555,3.887a1,1,0,0,0,1.858,0l1.555-3.887,3.888-1.556a1,1,0,0,0,0-1.857Zm-5.029,1.715a1,1,0,0,0-.557.557L55,28.358l-.786-1.964a1,1,0,0,0-.557-.557l-1.965-.786,1.965-.786a1,1,0,0,0,.557-.557L55,21.743l.786,1.965a1,1,0,0,0,.557.557l1.965.786Z"></path><rect x="55" y="51.051" width="2" height="2"></rect><rect x="55" y="57.051" width="2" height="2"></rect><rect x="58" y="54.051" width="2" height="2"></rect><rect x="52" y="54.051" width="2" height="2"></rect><rect x="11" y="24.051" width="2" height="2"></rect><rect x="11" y="28.051" width="2" height="2"></rect><rect x="13" y="26.051" width="2" height="2"></rect><rect x="9" y="26.051" width="2" height="2"></rect><path d="M43.293,43.758a1,1,0,0,0,1.414,0l2-2a1,1,0,0,0,0-1.414l-2-2a1,1,0,0,0-1.414,1.414l1.293,1.293-1.293,1.293A1,1,0,0,0,43.293,43.758Z"></path><path d="M49.707,38.344a1,1,0,0,0-1.414,1.414l1.293,1.293-1.293,1.293a1,1,0,1,0,1.414,1.414l2-2a1,1,0,0,0,0-1.414Z"></path><path d="M12.707,10.344a1,1,0,0,0-1.414,0l-2,2a1,1,0,0,0,0,1.414l2,2a1,1,0,0,0,1.414-1.414l-1.293-1.293,1.293-1.293A1,1,0,0,0,12.707,10.344Z"></path><path d="M7.707,10.344a1,1,0,0,0-1.414,0l-2,2a1,1,0,0,0,0,1.414l2,2a1,1,0,0,0,1.414-1.414L6.414,13.051l1.293-1.293A1,1,0,0,0,7.707,10.344Z"></path></g></svg>